<?xml version="1.0" encoding="utf-8"?>
<!-- Generator: Adobe Illustrator 18.0.0, SVG Export Plug-In . SVG Version: 6.00 Build 0)  -->
<!DOCTYPE svg PUBLIC "-//W3C//DTD SVG 1.1//EN" "http://www.w3.org/Graphics/SVG/1.1/DTD/svg11.dtd">
<svg version="1.1" id="Layer_1" xmlns="http://www.w3.org/2000/svg" xmlns:xlink="http://www.w3.org/1999/xlink" x="0px" y="0px"
	 viewBox="0 0 612 792" enable-background="new 0 0 612 792" xml:space="preserve">
<circle fill="none" stroke="#fff" stroke-linecap="round" stroke-linejoin="round" stroke-miterlimit="10" cx="49.8" cy="131.1" r="11.7"/>
<path fill="none" stroke="#fff" stroke-linecap="round" stroke-linejoin="round" stroke-miterlimit="10" d="M257.2,144.6
	l2.2,0c5.4,0,9.8-4.6,9.8-10.2c0-5.2-3.7-9.5-8.6-10.1c-1.1-6-6.2-10.6-12.4-10.6c-5.2,0-9.6,3.2-11.5,7.8c-1.2-0.5-2.6-0.8-4-0.8
	c-6.2,0-11.8,5.9-11.8,12.5c0,5.4,4.4,11.4,9.6,11.4"/>
<path fill="none" stroke="#fff" stroke-miterlimit="10" d="M249.5,144.6"/>
<line fill="none" stroke="#fff" stroke-linecap="round" stroke-linejoin="round" stroke-miterlimit="10" x1="240.9" y1="144.7" x2="248.2" y2="144.6"/>
<line fill="none" stroke="#fff" stroke-linecap="round" stroke-linejoin="round" stroke-miterlimit="10" x1="230.4" y1="144.7" x2="231.5" y2="144.7"/>
<path fill="none" stroke="#fff" stroke-miterlimit="10" d="M366.8,128"/>
<path fill="none" stroke="#fff" stroke-linecap="round" stroke-linejoin="round" stroke-miterlimit="10" d="M240.9,155
	c0,2,1.6,3.6,3.6,3.6s3.6-1.6,3.6-3.6s-2.8-6.7-3.6-8.6C243.1,149,240.9,152.9,240.9,155z"/>
<path fill="none" stroke="#fff" stroke-linecap="round" stroke-linejoin="round" stroke-miterlimit="10" d="M232.4,148.6
	c0,2,1.6,3.6,3.6,3.6s3.6-1.6,3.6-3.6c0-2-2.8-6.7-3.6-8.6C234.7,142.6,232.4,146.5,232.4,148.6z"/>
<path fill="none" stroke="#fff" stroke-linecap="round" stroke-linejoin="round" stroke-miterlimit="10" d="M252.9,140.5
	c-1.4,2.6-3.6,6.5-3.6,8.6c0,2,1.6,3.6,3.6,3.6c2,0,3.6-1.6,3.6-3.6C256.5,147.1,253.8,142.4,252.9,140.5z"/>
<path fill="none" stroke="#fff" stroke-miterlimit="10" d="M227.7,148"/>
<path fill="none" stroke="#fff" stroke-linecap="round" stroke-linejoin="round" stroke-miterlimit="10" d="M193.1,144.6
	l5.3,0c6.4,0,10.8-4.6,10.8-10.2c0-5.2-3.7-9.5-8.6-10.1c-1.1-6-6.2-10.6-12.4-10.6c-5.2,0-9.6,3.2-11.5,7.8c-1.2-0.5-2.6-0.8-4-0.8
	c-6.2,0-11.8,5.9-11.8,12.5c0,5.4,3.4,11.4,8.6,11.4"/>
<path fill="none" stroke="#fff" stroke-linecap="round" stroke-linejoin="round" stroke-miterlimit="10" d="M177.3,144.7"/>
<line fill="none" stroke="#fff" stroke-linecap="round" stroke-linejoin="round" stroke-miterlimit="10" x1="168.8" y1="144.7" x2="177.3" y2="144.7"/>
<path fill="none" stroke="#fff" stroke-linecap="round" stroke-linejoin="round" stroke-miterlimit="10" d="M137.7,144.7
	l1.7,0c5.4,0,9.8-4.6,9.8-10.2c0-5.2-3.7-9.5-8.6-10.1c-1.1-6-6.2-10.6-12.4-10.6c-5.2,0-9.6,3.2-11.5,7.8c-1.2-0.5-2.6-0.8-4-0.8
	c-6.2,0-11.8,5.9-11.8,12.5c0,5.4,4.4,11.4,9.6,11.4"/>
<line fill="none" stroke="#fff" stroke-miterlimit="10" x1="110.4" y1="144.7" x2="114.2" y2="144.7"/>
<path fill="none" stroke="#fff" stroke-miterlimit="10" d="M50.4,144.7l29,0c5.4,0,9.8-4.6,9.8-10.2c0-5.2-3.7-9.5-8.6-10.1
	c-1.1-6-6.2-10.6-12.4-10.6c-5.2,0-9.6,3.2-11.5,7.8c-1.2-0.5-2.6-0.8-4-0.8c-6.2,0-11.8,5.9-11.8,12.5
	C40.8,138.7,45.2,144.7,50.4,144.7"/>
<polygon fill="none" stroke="#fff" stroke-linecap="round" stroke-linejoin="round" stroke-miterlimit="10" points="
	186.9,134.7 184.6,145.5 190.5,145.5 182.1,158.6 183.8,147.8 178.4,147.8 "/>
<path fill="none" stroke="#fff" stroke-linecap="round" stroke-linejoin="round" stroke-miterlimit="10" d="M124,146.3
	c-0.4,0.4-0.5,0.8-0.5,1.3l-1.3,1.3v-1.8c0.3-0.3,0.6-0.7,0.6-1.2c0-0.9-0.7-1.6-1.6-1.6c-0.9,0-1.6,0.7-1.6,1.6
	c0,0.5,0.2,0.9,0.6,1.2v1.8l-1.3-1.3c0-0.5-0.1-0.9-0.5-1.3c-0.6-0.6-1.7-0.6-2.3,0c-0.6,0.6-0.6,1.7,0,2.3c0.4,0.4,0.8,0.5,1.3,0.5
	l1.3,1.3h-1.8c-0.3-0.3-0.7-0.6-1.2-0.6c-0.9,0-1.6,0.7-1.6,1.6c0,0.9,0.7,1.6,1.6,1.6c0.5,0,0.9-0.2,1.2-0.6h1.8l-1.3,1.3
	c-0.5,0-0.9,0.1-1.3,0.5c-0.6,0.6-0.6,1.7,0,2.3c0.6,0.6,1.7,0.6,2.3,0c0.4-0.4,0.5-0.8,0.5-1.3l1.3-1.3v1.8
	c-0.3,0.3-0.6,0.7-0.6,1.2c0,0.9,0.7,1.6,1.6,1.6c0.9,0,1.6-0.7,1.6-1.6c0-0.5-0.2-0.9-0.6-1.2V154l1.3,1.3c0,0.5,0.1,0.9,0.5,1.3
	c0.6,0.6,1.7,0.6,2.3,0c0.6-0.6,0.6-1.7,0-2.3c-0.4-0.4-0.8-0.5-1.3-0.5l-1.3-1.3l1.8,0c0.3,0.3,0.7,0.6,1.2,0.6
	c0.9,0,1.6-0.7,1.6-1.6c0-0.9-0.7-1.6-1.6-1.6c-0.5,0-0.9,0.2-1.2,0.6l-1.8,0l1.3-1.3c0.5,0,0.9-0.1,1.3-0.5c0.6-0.6,0.6-1.7,0-2.3
	C125.7,145.6,124.6,145.6,124,146.3z"/>
<path fill="none" stroke="#fff" stroke-linecap="round" stroke-linejoin="round" stroke-miterlimit="10" d="M133.9,135.2
	c-0.3,0.3-0.5,0.7-0.4,1.2l-1.2,1.2V136c0.3-0.3,0.5-0.7,0.5-1.1c0-0.8-0.6-1.4-1.4-1.4c-0.8,0-1.4,0.6-1.4,1.4
	c0,0.4,0.2,0.8,0.5,1.1v1.6l-1.2-1.2c0-0.4-0.1-0.8-0.4-1.2c-0.6-0.6-1.5-0.6-2.1,0c-0.6,0.6-0.6,1.5,0,2.1c0.3,0.3,0.7,0.5,1.2,0.4
	l1.2,1.2h-1.6c-0.3-0.3-0.7-0.5-1.1-0.5c-0.8,0-1.4,0.6-1.4,1.4c0,0.8,0.6,1.4,1.4,1.4c0.4,0,0.8-0.2,1.1-0.5h1.6l-1.2,1.2
	c-0.4,0-0.8,0.1-1.2,0.4c-0.6,0.6-0.6,1.5,0,2.1c0.6,0.6,1.5,0.6,2.1,0c0.3-0.3,0.5-0.7,0.4-1.2l1.2-1.2v1.6
	c-0.3,0.3-0.5,0.7-0.5,1.1c0,0.8,0.6,1.4,1.4,1.4c0.8,0,1.4-0.6,1.4-1.4c0-0.4-0.2-0.8-0.5-1.1v-1.6l1.2,1.2c0,0.4,0.1,0.8,0.4,1.2
	c0.6,0.6,1.5,0.6,2.1,0c0.6-0.6,0.6-1.5,0-2.1c-0.3-0.3-0.7-0.5-1.2-0.4l-1.2-1.2l1.6,0c0.3,0.3,0.7,0.5,1.1,0.5
	c0.8,0,1.4-0.6,1.4-1.4c0-0.8-0.6-1.4-1.4-1.4c-0.4,0-0.8,0.2-1.1,0.5l-1.6,0l1.2-1.2c0.4,0,0.8-0.1,1.2-0.4c0.6-0.6,0.6-1.5,0-2.1
	C135.4,134.6,134.5,134.6,133.9,135.2z"/>
<circle fill="none" stroke="#fff" stroke-linecap="round" stroke-linejoin="round" stroke-miterlimit="10" cx="32.6" cy="131.6" r="2.5"/>
<circle fill="none" stroke="#fff" stroke-linecap="round" stroke-linejoin="round" stroke-miterlimit="10" cx="34.8" cy="123.6" r="2.5"/>
<circle fill="none" stroke="#fff" stroke-linecap="round" stroke-linejoin="round" stroke-miterlimit="10" cx="35.7" cy="138.9" r="2.5"/>
<circle fill="none" stroke="#fff" stroke-linecap="round" stroke-linejoin="round" stroke-miterlimit="10" cx="40.6" cy="117.5" r="2.5"/>
</svg>
